/* XPM */
static char *d2b23037bf4642b689d85dd94a8b3bbe6u1MmP8EnaTt2cZ4[] = {
/* columns rows colors chars-per-pixel */
"64 64 21 1 ",
"  c #181818",
". c #281E0B",
"X c #34270E",
"o c #423213",
"O c #493615",
"+ c #59431A",
"@ c #5B441B",
"# c #694F1F",
"$ c #7A5B23",
"% c #444444",
"& c #686868",
"* c #747474",
"= c gray50",
"- c #8A6828",
"; c #916D2A",
": c gray51",
"> c gray56",
", c gray59",
"< c #C1C1C1",
"1 c #D8D8D8",
"2 c white",
/* pixels */
">>==>>****====*****==========*********===>>=**********========**",
"*==>>>>****=====******=====****===****====****==*****==========*",
"**===>>>>>====>==***========*****===****=======****=============",
"***=>>>>====>>>>>======*******===============**********==***====",
"=***===>>>>==>>>>>===*******================***====***==**=====*",
"**======>>>>>>>>====****========================**===******==***",
"===**=****=>>>==***==*****==========**&&*======**==****====***==",
"====****&&&====********%%%%%%%%%%%%%%%%%%%************==========",
"==*===***&&&&***&&&&**%2221111111111111111%%%&&**===****===***==",
"=*********&&&&*&&&&**%22222111111111111111111%%%***=OOO=====***=",
"**==*==****&&&&&&*****%2222111111<<<<<<<<<111111%%=O+##o==*==***",
"***===*******&&********%%2111<<<<<<<<<<<<<<<111111%+###@o==***==",
"****===**===>>==**>>==>>>%             <<<<<<<<11:,1##@@X=======",
"*****=>>>====>>>===>>>>>====**===>>>>>>   :<<<<<:,111$@X.=====**",
"*****>>>==>>>>====>>>>=========>>>===>>>>>  :<<:,<<111X.=*==****",
"===***=>>>>>>=***====>>=**======>>>====>>>>> ::,1<<<1, ********=",
"====**>>>>>>**********===**====***===>>>>>>==O,111<<,:1 ********",
"*====>>>>>===**************===***========>>>O+#<111,:11 ===***==",
"***===>==>>>=====********===*******=====>>>O+;##<1,:<111 ====**=",
"**=====**======*********==*******=========O+;--@@,:<<<11 ==*****",
"=>>>====***=======*********==**==========O+;--$@X.:<<<11 =****==",
"==>>>>=*****=======**==*****===========*O+##-$$X.* :<<111 ==****",
"===>>>>===***=========***==============O+###@$X.*** <<<11 *==**=",
"=====>>>=**>>=======================**O+###@@X.==** :<<11 ======",
"****========>>>==>>==*===========>>>>O+###@@X.====== <<<11 >>==*",
"*==========**>>>>>==**=**=====>>==>>O+###@@X.**===== <<<11 >>>**",
"**====**=====*>>>>>>=*&*==**=>>>>>*O+###@@X.*======= <<<11 >===*",
"*===***==*&&==**>>>>>>*&&***>>>>=*O+;;-$@X.********== <<11 ===**",
"********&&&**********&&&*****==>>O+;--$$X.********=== <<11 ==***",
"=****===*&&&&&********&&&&*===>>O+;--$$X.*******=***= <<11 =====",
"**>****===*&&********&&&******=O+;--$$X.===***======= <<11 *==**",
"*>>>>*===&&&&&&&*******&&*****O+#$-$$X.==***========= <<11 *****",
">>>>>>======*&&>>>****>==**==O+###@@X.===>>========== <<11 ==***",
">>>>>>>========*>>>*>>==>>==O+###@@X.==>>>>>>======== <111 =****",
"=>==>>===>>======>>>>>>>>==O+###@@X.>>>>>>>=====****= <111 >=*==",
"*==>>>>>==>>====>>>==>====O+###@@X.>>>>>======****=>> <111 =====",
"***===>>>>>>>>==**>>=====O+###@@X.=>>>======**>>>===> <111 ===*=",
"****====>===>>>==***====O+--#@@X.=>>=======*>>>>==>>> 1111 ==&&*",
"*&&========>>>=****====O+;;-$@X.=====**=**>>>>>>>>>>> 1111 ***&&",
"&&**======>>>=====**==O+;--$$X.=======***>>>>==>>>>>> 1221 =***&",
"&&*&&&=====>=========O+;--$$X.======********>>==>>=== 2222 ***==",
"*&&&**==***========*O+;--$$X.*====*****===***======*** 222 =====",
"==*&&*****=======**O+#--$$X.&***======***========***** 222 *====",
"====***========*==O+#--#@X.&&&&**====***=====>>=****==* 2 *=====",
"======**====*****O+#--@@X.&&**==***=======>>>>==>>>==*** ==>>>>=",
"===========**===O+#--@@X.=>>***===========**>>>>>>===>====>>>>=*",
"*=============*O+#--@@X.>>>*=====**========***&&>>>>>>>>===>=>>=",
"==***==***====O+#--@@X.=>>>>=*=***=====***==*&&***>>>>=>>>===>>>",
"***===**=====O+#--#@X.=>>=====*******===******&&&***>*&&**=*****",
"**********==O+;--$@X.>===**======**======*===&&******&&**=**===*",
"**>==******O+;--$$X.>=*******===========***====****==**&*==***==",
"*>>>>>>***O+;--$$X.==*****====***===========*****===********====",
"===>>>>>>O+;--$$X.==**==***=****==*==========***>>===***>>=>>>=*",
">>>>===>O+#$-$$X.**========**********==========**>>>>*=>>===>>>>",
">>>>>>=O+###@@X.****========*====***==*=========>>>===>>>>>>>>==",
">>=====O###@@X.******=========************========>>>>>>>>>>>===",
"=>>>===O##@@X.**==*****======**=****===========>>>>>>>>>>>==>>>>",
"=====***o@@X.====**===============*****=======>>====>>>>===>>>==",
"===******oX.***======================>>>====*====>>>>*****======",
"=******====**====***====****=======>>>=====****=====*****==*====",
"*********===**==***===********==>===>>>>**===***======********==",
"******=****==============***=====>>>=>>==*****=============**==*",
"**================************====>>>>>>>>>**===***=======******",
"=***============*****************======>>>>>>*****===***====****"
};
