/* XPM */
static char *_4a47c2bfc164502d7b37087f2d2e0bcwZdzNZfysaYgEVvK[] = {
/* columns rows colors chars-per-pixel */
"64 64 11 1 ",
"  c #676767",
". c #686868",
"X c #747474",
"o c gray50",
"O c #239698",
"+ c #1ED0D6",
"@ c #77E7D1",
"# c gray56",
"$ c #8DADB1",
"% c #A2A2A2",
"& c #D5FFF6",
/* pixels */
"oooooo########oooooXXXoooXXXoooXXooooXXXoooXXXXXoooo##ooXXXXoooo",
"ooo########oo###ooXooXXXooXXXXoooXX....XXX..XooXXo###ooXXXoooooo",
"o######ooo##ooooooooXXXXXX#####oX..XXX....XXXXooooXXXoooXXXXXXoo",
"ooooo###ooooooooooooooXXX####oooooXXXXXX.XXXXXXXXooXXXoooooXXXXo",
"oooooXXXXoooooooXoo###ooooooXXXX##oooo##oooooooXXXXX..XXXooooXXX",
"####XooXXXXXooXXXXXXo##oooXXXXXoo###ooo###ooXX..XX...XXXooXXXXXo",
"o##oooXXXXXoooooXXXXXXooXXXXooo####oXXXXoooXXXXX...XXXooXXXoo##o",
"#####oooXXXXXooXooXXXXXXXXXXXXooXXooooXXXXXoooXXX.    XooXXXoo##",
"oooooXXXXX......XXXXXXXXXX..X.....XXXXXXXXXXXXooX +@++ XXXXXXXoo",
"oooXXXXX.....XX..  XXoooXXXX...XXX..XXXXXXXXXXXX @&&@++ XXXXXXXo",
"o###ooXXXXX...XX &@ XXXoooXXXX...XXXXXoooXXXXoo @&&@+@O+oXXXoooo",
"##oXXXXXXXXXXXX &@+@XXoooXXXX..   XoooooXXoooooo$@+++OOO%XXXXooo",
"ooooXXXXoooooX  ++OO%oXXXXXooo +@+  ####ooooooXXX$O+++OO%XXooXXo",
"ooXXXXooXXooXXX %OO+$XXXooooo @&&@+@ ##ooXXooooXXX$$OO+O%.XXXXoo",
"XXooooo#######XXX$$$####ooXX @&&@@@++O$XXXoXXo#oo###$$$%#XooooXX",
"oXXX####ooo#####oo#####ooXXX ++@@++OO$##oooo############..XXoooo",
"XXXXXXoooo###ooooXXXXooXXXXoo%+OOOOO$########ooooo###oooXXXXXXXo",
"oooXXXXXoooo##XX....XXXXooooXX%+OO$$###########o##oo##oXXooXXXoo",
"ooXXoooXXXXoooooXX.XXXooXXXXooo%$$####oooo######ooooXXXoooXXoooo",
"ooooooXXXXooooXXX...XXX   Xooo####o#oooo####..oooXXXXXXXXoo###oo",
"ooooo####ooXXXXXXXXXX  +++  XXXo###oXXXooo..+O.XXX..XX..XXXXo###",
"oo########ooXooXXX   @@@++OO XXXXooooXXX..&@++O#...XXXX...Xo###o",
"ooooo###ooXXXXXX  @@&&&@@@@OO XoooXXX....&&&@@O+#.XXXXXXXXXXXXoo",
"oooo#######ooX  @@@&&&@@@@++OO XooooXX...@&@@+OO%XXXXXXXXXXXXXXo",
"oXXoooo##ooo#+@@&&@@@@@@+OOO+OO ######XX@+@@@++O%XooooXXXXXooooo",
"XXXXXXooXXoo#%+@@++@@@++@+OOOOO%###ooooX+@@++O+O$oXXXooooooXXooo",
"ooXXXoooooXXXo%%++@@++++OO++OO$#oXXooXX.#O++OOO$XXXoooo###ooXXXo",
"ooooXXXXXXXXXXX#$$+@@+OOO++O$$XXXooXXXXX.%OOOO$ooooo#####oXXXXoo",
"XXXXXXXXXXXX...XX##$$$%$$$$$ooooXXXXoooXXX%$$$ooXXXXXXooooooooXX",
"oXXX..............XX...XXoooXoXooXXXXoXXXXXXXooooXXXXXXXoooooooo",
"oooXXXX.....XXX..........XXXXXXXooooooooXXXXXXXXXXXXoooooooooooo",
"oXXooo.   ...X.....XXXXXX..XXXoooooX  ooooXXXXXXXXooooooXXXXoooo",
"ooooX  @&&  XXXX....XXXXooXXoo####  @@  oooXXoooXXXXXooooXXXXXoo",
"ooXX @&&&@@+  XXXXXXXXXXXX######  @&&&@+  XooooXXXXXooXXXXXXXooo",
"oooX@++@@++@++O%%##oXXoooooo##  @@&&&@@@++ XXXooooooooooXXXooooo",
"oo##%@++@@+++OOO%%o##oooooooo @@&&@@@@++@@OOXooXXXXXooooooXXoooo",
"ooooo%+O+++OOOO$##oooooo##ooo@++@+@@+++@@++OOO%oXXoo####oooooooo",
"ooo###%%OOOOO$$XXXooXXooo###o%@++@@O@+@@++OOO%##oooooo###ooooooo",
"Xooo####$$$$$oooXXXXXoXXXXoo##%%@+++OOO+OO$%%Xoooo##o##ooooXXXXX",
"XXXXoooooooXXXoXXXXXooooXoXXXXXo%$OOOO+$$$XXXooooXXoooooX....XXX",
"X.XoooXooXXXXooooX   XXX.XXXXXXXXX%$$$$XXXooooXXXXooXooooXX.XXoo",
"XX..XXooooooooooX @@+ ......XX..XooXoXXXXXXoXXooXXXXoXXXXX...XXX",
"ooXXXXXXXXXXXXooo&&+@OOXXX....XXXXooXXXooooooo#XXX####oooXXoooXX",
"XXXXoXXXXXXXXXXXo@&&++OOXXXXXooooooooooXoooo##X   Xo####oooooooo",
"oooooooooXXXXXXooo@+OOo#####oooooo###oXXXXXXoX +OO  ooXXXXXoo###",
"oXooXXXX..XooXXXXXoo#####ooo##oo####oooXXooXX +@++OO XXXXXoo##oo",
"ooXXX....XXXXXXXXoo#######oooXoXXo#XXoooXXXX +@@@@+OO XXXXXXXXoo",
"XXXoooX...XXooXoooooo###oooXXXXooooooXXXX  +@@@@@+++OO XXXXXoXXo",
"oXXXXXXXXXoooXXXooo###oooXXX...XXX.. X  @@@@@@@++@++OOO#XXXXXooo",
"XXXXXooXooXXoooooooo####oooooXXX... @@&&&&@@@@@@+++OOOO#....XXXX",
"XXooooXXXXX.XXoo#########ooooooXX @&&&&&@@+++@@++OOOOO#XXXX...XX",
"ooooooooX..XoooXXo####ooooXoooXXX+@@&&@@@@@++++OOO%%%#XXXX...XXX",
"o#####oo#oXXXX    XXooooXXXoooooo%+@@@@+++++OO$$%%oooXooooooo##o",
"oo###oo###oXX  +@@ XXXXooXXXooooXX%++@@@++OOO$$ooXXXXooooX######",
"#######ooXXX &&@++OXXoooooooXXXXXoo%O++OOOOO$$XXXXooXXXXXXXooooo",
"ooooooooooX @@++@+OoooooXXXXXXXXXXXX%%O+OO$$XXooooooooXXXXXXo##o",
"oooXXXXXooo#+@@+OO$o##oo##XXXXXXXXooXo%%%$oooXX###ooo#######oo##",
"ooooXXoXXXX##+OOO$######oooooXXXoooooooooooooooo####ooo########o",
"oXXXX...XXoo#$$$$####oooooXXXXXXXXXXooooooooo######o##ooo####ooo",
"ooXX.XXXooooooo##ooo##oXXoooXXXXXXoooo#oooXXXooooooooooo##oXXXXo",
"XXoooooooXoXXXXXXXXooooooXXXXXoooooo####oooooXXXXooooXXXXXooooXX",
"ooooooXXXXXooXXXXoXXXoXXXX....XXoo##ooo#####ooXXooXXXXooooXXoooo",
"ooooXXXXooooXXXooooXooooXXXX.XXXXXoooo####ooooooooooXXXooooooooo",
"ooooooooooXXoooooooooooooooXXXXXooooooooooooooooooooooXXoooooooo"
};
