/* XPM */
static char *_27f02fc864a4eb8ee49a12d11efac96I0jGtBLiWAwMYSOE[] = {
/* columns rows colors chars-per-pixel */
"64 64 14 1 ",
"  c #145E53",
". c #11727A",
"X c #686868",
"o c #747474",
"O c gray50",
"+ c #1C919A",
"@ c #1AAAA7",
"# c #20C5B5",
"$ c #2CE0D8",
"% c #4AEDD9",
"& c gray56",
"* c #A1FBE8",
"= c #D5FFF6",
"- c white",
/* pixels */
"&&OO&&ooooOOOOoooooOOOOOOOOOOoooooooooOOO&&OooooooooooOOOOOOOOoo",
"oOO&&&&ooooOOOOOooooooOOOOOooooOOOooooOOOOooooOOoooooOOOOOOOOOOo",
"ooOOO&&&&&OOOO&OOoooOOOOOOOOoooooOOOooooOOOOOOOooooOOOOOOOOOOOOO",
"oooO&&&&OOOO&&&&&OOOOOOoooooooOOOOOOOOOOOOOOOooooooooooOOoooOOOO",
"OoooOOO&&&&OO&&&&&OOOoooooooOOOOOOOOOOOOOOOOoooOOOOoooOOooOOOOOo",
"ooOOOOOO&&&&&&&&OOOOooooOOOOOOOOOOOOOOOOOOOOOOOOooOOOooooooOOooo",
"OOOooOooooO&&&OOoooOOooooo............XXoOOOOOOooOOooooOOOOoooOO",
"OOOOooooXXXOOOOooooooooO..---------===..XXooooooooooooOOOOOOOOOO",
"OOoOOOoooXXXXoooXXXXooo.----=====%%%%%==.XXoXXXooOOOooooOOOoooOO",
"OoooooooooXXXXoXXXXooo.---===%%%%%%%%%%==.XXXooooooOOOOOOOOOoooO",
"ooOOoOOooooXXXXXXoooo.--===%%%%%%%%%%%%==#.oOOoooOOOOOOOOOoOOooo",
"oooOOOoooooooXXooooo.-===%%%%%%%%%%%%%==%##.oOOoooOOOOOOOOOoooOO",
"ooooOOOooOOO&&OOoo&.-==%%%%%%%%%%%%%%%==%%##.OOOOOOOOOOOOOOOOOOO",
"oooooO&&&OOOO&&&OO.-==%%%%%%%%%%%%%**==%%%%## OOOOOOOOOOOOOOOOoo",
"ooooo&&&OO&&&&OOO.-==%%%%%%%%%%%%****==%%%%%## OOO&&&OOOOoOOoooo",
"OOOoooO&&&&&&Ooo.-==%%%%%%%%%%%******=%%%%%%%## &&&OOOOooooooooO",
"OOOOoo&&&&&&ooo.--=%%%%%%%%%%*******==%%%%%%%%## &&&&ooooooooooo",
"oOOOO&&&&&OOOo.--==%%%%%%%%*********=%%%%%%%%%%## &&XXXoOOOoooOO",
"oooOOO&OO&&&OO.--=%%%%%%%**********==%%%%%%%%%%%# &ooXXXXOOOOooO",
"ooOOOOOooOOOO.--==%%%%%***********==*%%%%%%%%%%%## oXXOOOOOooooo",
"O&&&OOOOoooOO.--=%%%%************==***%%%%%%%%%%%# XXXXOOOooooOO",
"OO&&&&Oooooo.--==**************===******%%%%%%%%%## XXXXoOOOoooo",
"OOO&&&&OOOoo.--=********---====-----====*%%%%%%%%%# oooooooOOooO",
"OOOOO&&&Ooo.--=********-%%%%%%%%%%%%%%%%=%%%%%%%%%#@ oooooOOOOOO",
"ooooOOOOOOO.----******-%%%%%%%%%%%%%%%%%*=%%%%%%%%%# ooOOO&&&OOo",
"oOOOOOOOOO.--==---***-%%%%%%%%%%%%%%%%%***=%%%%%%%%#@ OO&&&&&&oo",
"ooOOOOooOO.-==%%%----%%%%%%%%%%%%%*%%%*****@%%%%%%%%@ &&&&&&OOOo",
"oOOOoooOO.--=%%%%%%%=%%%%%%%%%%%%*%%%*****%@%%%%%%%%%@ &&&&OOOoo",
"ooooooooX.-==%%%%%%%=%%%%%%%%%%%*%%%*****%%@%%%%%%%##@ OOOOOOooo",
"OooooOOOo.-==%%%%%%%=%%%%%%%%%%*%%%*****%%*@%%%%%####@ OOOOOOOOO",
"oo&ooooOO.-=%%%%%%%%=%%%%%%%%%*%%%*****%%**+%%%######@ OOOooOOoo",
"o&&&&oOO.-==%%%%%%%%=%%%%%%%**%%%*****%%**%+%########@@ oooooooo",
"&&&&&&OO.-==%%%%%%%%=%%%%%%**%%%*****%%**%%+##########@ OOOOOooo",
"&&&&&&&O.-=%%%%%%%%%=%%%%%**%%%*****%%**%%%+##########@ O&&Ooooo",
"O&OO&&OO.-=%%%%%%%%%=%%%%**%%%*****%%%*%%%%+##########@ OO&&OoOO",
"oOO&&&&&.-=%%%%%%%--=%%%**%%%*****%%%*%%%%%+@@########@ O&&OOOOO",
"oooOOO&&.-=*%%%%---%=%***%%%*****%%%%%%%%%%+#@@@######@ &&OOOOoO",
"ooooOOOO.--=*----%%%=***%%%*****%%%%%%%%%%%+###@@@@##@@ O&&OOXXo",
"oXXOOOOOO.----%%%%%%$#*%%%*****%%%%%%%%%%%@#######@@@@ oOOOoooXX",
"XXooOOOOO.=%%%%%%%%%%$#%%*****%%%%%%%%%%%@###########@ oooOOoooX",
"XXoXXXOOO.=%%%%%%%%%%%%#*****%%%%%%%%%%%@############@ OooooooOO",
"oXXXooOOoo.=%%%%%%%%%%%$@@@@@@@@@@@@@@@@############+ ooooOOOOOO",
"OOoXXooooo.=$%%%%%%%%%%@@@############@@@###########+ ooooooOOOO",
"OOOOoooOOOO $%%%%%%%%%@@################@@########## OoooooOOOOO",
"OOOOOOooOOO $$%%%%%%%%@##################@#########* oooOOO&&&&O",
"OOOOOOOOOOOo $%%%%%%%@@##################@@#######* O&OOOO&&&&Oo",
"oOOOOOOOOOOO $$%%%%%%@####################@#######* &&&&OOO&O&&O",
"OOoooOOoooOOO $%%%%$@@####################@@#####* &&&O&&&OOO&&&",
"oooOOOooOOOOO $$%%%$@@####################@@####** o&oXXooOooooo",
"ooooooooooOOOO $%%$$@######################@####* oooXXooOooOOOo",
"oo&OOooooooooO $$$$@@######################@@##** oOOooXoOOoooOO",
"o&&&&&&ooooOOOO $$$@@######################@@##* OOOooooooooOOOO",
"OOO&&&&&&oooooOO $$@@######################@@#* &&OOOooo&&O&&&Oo",
"&&&&OOO&&&&oooooo $@########################@# oo&&&&oO&&OOO&&&&",
"&&&&&&OOOOoooooooo @########################@ OO&&&OOO&&&&&&&&OO",
"&&OOOOOOooooooooooo ++###################### OOOOO&&&&&&&&&&&OOO",
"O&&&OOOoooooooooOOoo  %%%%%%%%%%**********  OOO&&&&&&&&&&&OO&&&&",
"OOOOOooooooooOOOOooOOO                    OOOO&&OOOO&&&&OOO&&&OO",
"OOOooooooooooooOOOOOOOOOOOOOOOOOOOOOO&&&OOOOoOOOO&&&&oooooOOOOOO",
"OooooooOOOOooOOOOoooOOOOooooOOOOOOO&&&OOOOOooooOOOOOoooooOOoOOOO",
"oooooooooOOOooOOoooOOOooooooooOO&OOO&&&&ooOOOoooOOOOOOooooooooOO",
"ooooooOooooOOOOOOOOOOOOOOoooOOOOO&&&O&&OOoooooOOOOOOOOOOOOOooOOo",
"ooOOOOOOOOOOOOOOOOooooooooooooOOOO&&&&&&&&&ooOOOoooOOOOOOOoooooo",
"OoooOOOOOOOOOOOOoooooooooooooooooOOOOOO&&&&&&oooooOOOoooOOOOoooo"
};
