/* XPM */
static char *_4f005393a2643dab9bf9d2e8a141aefrluOFcM81KTkZBrK[] = {
/* columns rows colors chars-per-pixel */
"64 64 29 1 ",
"  c #241808",
". c #2B1E0D",
"X c #332411",
"o c #3F2A15",
"O c #421D0A",
"+ c #492510",
"@ c #6A4030",
"# c #774235",
"$ c #676767",
"% c #686868",
"& c #747474",
"* c gray50",
"= c #815339",
"- c #8F5E3E",
"; c #90593F",
": c #94603E",
"> c #9B6349",
", c #AA7259",
"< c #B3795E",
"1 c #B7836B",
"2 c #523D89",
"3 c #239698",
"4 c #1ED0D6",
"5 c #77E7D1",
"6 c gray56",
"7 c #8DADB1",
"8 c #A2A2A2",
"9 c #D5FFF6",
"0 c white",
/* pixels */
"******66666666*****&&&***&&&***&&****&&&***&&&&&****66**&&&&****",
"***66666666**666**&**&&&**&&&&***&&%%%%&&&%%&**&&*666**&&&******",
"*666666***66********&&&&&&66666*&%%&&&%%%%&&&&****&&&***&&&&&&**",
"*****666**************&&&6666*****&&&&&&%&&&&&&&&**&&&*****&&&&*",
"*****&&&&*******&**666******&&&&66****66*******&&&&&%%&&&****&&&",
"6666&**&&&&&**&&&&&&*66***&&&&&**666***666**&&%%&&%%%&&&**&&&&&*",
"*66***&&&&&*****&&&&&&**&&&&***6666*&&&&***&&&&&%%%&&&**&&&**66*",
"66666***&&&&&**&**&&&&&&&&&&&&**&&****&&&&&***&&&%$$$$&**&&&**66",
"*****&&&&&%%%%%%&&&&&&&&&&%%&%%%%%&&&&&&&&&&&&**&$4544$&&&&&&&**",
"***&&&&&%%%%%&&%%$$&&***&&&&%%%&&&%%&&&&&&&&&&&&$599544$&&&&&&&*",
"*666**&&&&&%%%&&$95$&&&***&&&&%%%&&&&&***&&&&**$59954534*&&&****",
"66*&&&&&&&&&&&&$9545&&***&&&&%%$$$&*****&&******754443338&&&&***",
"****&&&&*****&$$44338*&&&&&***$454$$6666******&&&73444338&&**&&*",
"**&&&&**&&**&&&$83347&&&*****$599545$66**&&****&&&7733438%&&&&**",
"&&*****6666666&&&7776666**&&$5995554437&&&*&&*6**66677786&****&&",
"*&&&6666***66666**66666**&&&$44554433766****666666666666%%&&****",
"&&&&&&****666***XX...XXooXXXXoooXXooooooX..X...X**666***&&&&&&&*",
"***&&&&&****66&&.XX..XXXooXXoooXXooooXXXXX.XX..X66**66*&&**&&&**",
"**&&***&&&&*****XX.X..XXXXoooXXooooXXXXooX.XX.XX****&&&***&&****",
"******&&&&****&&.XXXX...XXXoXXoooXXoXXooXXXXX.XX*&&&&&&&&**666**",
"*****6666**&&&&& ..X...X..oXXXXXooXXXoX.XoXX.X.X&&%%&&%%&&&&*666",
"**66666666**&**&   .....X..XXXoXXXX..XXX.oXXXX.X%%%&&&&%%%&*666*",
"*****666**&&&&&&.  . .XXXXXXXooXXo..XXXXXXoXXX..6%&&&&&&&&&&&&**",
"****6666666**&$$..  ...X..XXXXoooXXXXXooX.X.XX..8&&&&&&&&&&&&&&*",
"*&&****66***6455  ... >,,,<<<<<<<<<<,,,,,>...XX.8&****&&&&&*****",
"&&&&&&**&&**6845.  .>,<<<<<<<<11<<<<<,,,,,,>..XX7*&&&******&&***",
"**&&&*****&&&*88X..>,<<<<<<<<11<<<<<<<,,,,,,> .X&&&****666**&&&*",
"****&&&&&&&&&&&6. >,<<<<<<111<<<<<<<<<,,,,,,,> X****66666*&&&&**",
"&&&&&&&&&&&&%%%& >,<<<<<<<<1<<<<<<<<<<,,,,,,,,>.&&&&&&********&&",
"*&&&%%%%%%%%%%%%.,,<<<<<<<<<<<<<<<<<<<,,,,,,,,, *&&&&&&&********",
"***&&&&%%%%%&&&%>,,<<<<<<<<<<<<<<<<<<,,,,,,,,,,>&&&&************",
"*&&***%$$$%%%&%%>,,,<<<<<<<<<<<<<<<<,,,,,,,,,,,>&&******&&&&****",
"****&$$599$$&&&&,,,,00002222<<<<<<,,22220000,,,,&&&&&****&&&&&**",
"**&&$5999554$$&&,,,,00002222<<<<,,,,22220000,,,,&&&&**&&&&&&&***",
"***&544554454438,,,,00002222,,,,,,,>22220000,,,,********&&&*****",
"**66854455444333,,,,00002222,,,,,,>>22220000,,,,&&&&******&&****",
"*****84344433337,,,,<<<<<<<,@@@@@@@@,,,,,,,,,,,,&&**6666********",
"***666883333377&,,,,,,,,,,,,@@@@@@@@,,,,,,,,,,,,******666*******",
"&***666677777***,,,,,,,,,,,,@@@@@@@@,,,,,,,,,,,,**66*66****&&&&&",
"&&&&*******&&&*&>,,,,,,,,,,,@@@@@@@@,,,,,,,,,,,>*&&*****&%%%%&&&",
"&%&***&**&&&&***>>,,,,,,,O++########+++,,,,,,,>>&&**&****&&%&&**",
"&&%%&&**********>>>>,,,,++OO########+O++,,,,>>>>&&&&*&&&&&%%%&&&",
"**&&&&&&&&&&&&**;;->->>;+OO+########O++O>->>->-=&&6666***&&***&&",
"&&&&*&&&&&&&&&&&;--->>;;O+++########+OO+->>>=-=-$$&*6666********",
"*********&&&&&&*=;;-;-;;+++OO+O++O+O++OO-->--==;33$$**&&&&&**666",
"*&**&&&&%%&**&&&;=;;-;;=++O+OO++++OOO++O-=--==--4433$&&&&&**66**",
"**&&&%%%%&&&&&&&;-:-=-==O++++OOO+O++OOOO=-=-:-==55433$&&&&&&&&**",
"&&&***&%%%&&**&*::-:-===+O++OOO+O++OOOOO====-:--544433$&&&&&*&&*",
"*&&&&&&&&&***&&&***666***&&&%%%&&&%%$&$$5555555445443336&&&&&***",
"&&&&&**&**&&********6666*****&&&%%%$55999955555544433336%%%%&&&&",
"&&****&&&&&%&&**666666666******&&$599999554445544333336&&&&%%%&&",
"********&%%&***&&*6666****&***&&&455995555544443338886&&&&%%%&&&",
"*66666**6*&&&&$$$$&&****&&&******84555544444337788***&*******66*",
"**666**666*&&$$455$&&&&**&&&****&&8445554433377**&&&&****&666666",
"6666666**&&&$995443&&*******&&&&&**83443333377&&&&**&&&&&&&*****",
"**********&$5544543*****&&&&&&&&&&&&88343377&&********&&&&&&*66*",
"***&&&&&***64554337*66**66&&&&&&&&**&*8887***&&666***6666666**66",
"****&&*&&&&6643337666666*****&&&****************6666***66666666*",
"*&&&&%%%&&**677776666*****&&&&&&&&&&*********666666*66***6666***",
"**&&%&&&*******66***66*&&***&&&&&&****6***&&&***********66*&&&&*",
"&&*******&*&&&&&&&&******&&&&&******6666*****&&&&****&&&&&****&&",
"******&&&&&**&&&&*&&&*&&&&%%%%&&**66***66666**&&**&&&&****&&****",
"****&&&&****&&&****&****&&&&%&&&&&****6666**********&&&*********",
"**********&&***************&&&&&**********************&&********"
};
