/* XPM */
static char *_42367c2a45d43f3bfab5cb6acf0f936KZIQ3N5zxaIkHfHn[] = {
/* columns rows colors chars-per-pixel */
"64 64 4 1 ",
"  c gray56",
". c gray50",
"X c #747474",
"o c #686868",
/* pixels */
"  ..  XXXX....XXXXX..........XXXXXXXXX...  .XXXXXXXXXX........XX",
"X..    XXXX.....XXXXXX.....XXXX...XXXX....XXXX..XXXXX..........X",
"XX...     .... ..XXX........XXXXX...XXXX.......XXXX.............",
"XXX.    ....     ......XXXXXXX...............XXXXXXXXXX..XXX....",
".XXX...    ..     ...XXXXXXX................XXX....XXX..XX.....X",
"XX......        ....XXXX........................XX...XXXXXX..XXX",
"...XX.XXXX.   ..XXX..XXXXX..........XXooX......XX..XXXX....XXX..",
"....XXXXooo....XXXXXXXX....X.......XXXXoooXXXXXXXXXXXX..........",
"..X...XXXooooXXXooooXXXXXXXXX....XoooooooooXoooXX...XXXX...XXX..",
".XXXXXXXXXooooXooooXXXXXXXXXXX.XXXXXoooXXXoooXXXXXX.........XXX.",
"XX..X..XXXXooooooXXXXXXXXXXXXXXXX..XXooooXXX..XXX.........X..XXX",
"XXX...XXXXXXXooXXXXXXXXX....XXX...XXXXXoooXXX..XXX.........XXX..",
"XXXX...XX...  ..XX  ..   .XXXXXX...     .XXX....................",
"XXXXX.   ....   ...     ....XX...         ....................XX",
"XXXXX   ..    ....    .........   ...       ......   ....X..XXXX",
"...XXX.      .XXX....  .XX......   ....       ..   ....XXXXXXXX.",
"....XX      XXXXXXXXXX...XX....XXX...      ....      XXXXXXXXXXX",
"X....     ...XXXXXXXXXXXXXX...XXX........    ....   oooX...XXX..",
"XXX... ..   .....XXXXXXXX...XXXXXXX.....           XXoooo....XX.",
"XX.....XX......XXXXXXXXX..XXXXXXX.........       ooXoo.....XXXXX",
".   ....XXX.......XXXXXXXXX..XX..........XXoooooXXooooo...XXXX..",
"..    .XXXXX.......XX..XXXXX...........XXXoooooXXXXXooooX...XXXX",
"...    ...XXX.........XXX................XXXXXooXXXXXXXXXXX..XX.",
".....   .XX  .......................XXX...XXX....XXXXXXXXX......",
"XXXX........   ..  ..X...........    XXXXXXXXX.......XX...   ..X",
"X..........XX     ..XX.XX.....  ..  XXXXXXXXXXX.........      XX",
"XX....XX.....X      .XoX..XX.     XXXXXXXXXXX.........      ...X",
"X...XXX..Xoo..XX      XooXXX    .XXX...XXXXXXXXXXXX....    ...XX",
"XXXXXXXXoooXXXXXXXXXXoooXXXXX..   ...XXXXXXXXXXXXX...........XXX",
".XXXX...XoooooXXXXXXXXooooX...  .......XXXXXXXXX.XXX............",
"XX XXXX...XooXXXXXXXXoooXXXXXX.............XXX............XX..XX",
"X    X...oooooooXXXXXXXooXXXXXX..XX......XXX............XXXXXXXX",
"      ......Xoo   XXXX ..XX..XXXXX    ...  ...........XX.....XXX",
"       ........X   X  ..  ..XXXX    ...      ............  .XXXX",
". ..  ...  ......        .....             .....XXXX..  ..  .X..",
"X..     ..  ....   .. ......   ...      ......XXXX.    ..  .....",
"XXX...        ..XX  ...... ...   ..   ......XX   ...      ....X.",
"XXXX.... ...   ..XXX.....      ...  .......X    ..    ...  ..ooX",
"Xoo........   .XXXX....       .......XX.XX             X...XXXoo",
"ooXX......   .....XX....   ...........XXX    ..      .XXXX..XXXo",
"ooXooo..... .........XXXXXoo........XXXXXXXX  ..  ......XXXXXX..",
"XoooXX..XXX........XXXooXooXXX....XXXXX...XXX......XXXXXXX......",
"..XooXXXXX.......XXXoooooooooXXX......XXX........XXXXXXXXXXX....",
"....XXX........X...XXoooXXXooooXX....XXX.....  .XXXX..XXXXX.....",
"......XX....XXXXXXXX    .XooXX..XXX.......    ..   ..XXX...    .",
"...........XX...XXX    ...  XXX...........XX      ... ....    .X",
"X.............XXX.         X.....XX........XXXoo        ... .  .",
"..XXX..XXX....   ..  ...    .X.XXX.....XXX..XooXXX    .   ...   ",
"XXX...XX........    ...  .....XXXXXXX...XXXXXXoooXXX XooXX.XXXXX",
"XXXXXXXXXX.......     ...XX......XX......X...ooXXXXXXooXX.XX...X",
"XX ..XXXXXXXX.  ..   .XXXXXXX...........XXX....XXXX..XXoX..XXX..",
"X      XXXX....    ..XXXXX....XXX...........XXXXX...XXXXXXXX....",
"...      XXXXX..XX..XX..XXX.XXXX..X..........XXX  ...XXX  .   .X",
"    ...    XXXXXXXX........XXXXXXXXXX..........XX    X.  ...    ",
"      ....XXXXXXXXXX........X....XXX..X.........   ...        ..",
"  ......XXXXXXXXXXXXX.........XXXXXXXXXXXX........           ...",
".   ...XXXXXXXXX..XXXXX......XX.XXXX...........           ..    ",
".....XXXXXXXX....XX...............XXXXX.......  ....    ...   ..",
"...XXXXXXXXXXXX......................   ....X....    XXXXX......",
".XXXXXX....XX....XXX....XXXX.......   .....XXXX.....XXXXX..X....",
"XXXXXXXXX...XX..XXX...XXXXXXXX.. ...    XX...XXX......XXXXXXXX..",
"XXXXXX.XXXX..............XXX.....   .  ..XXXXX.............XX..X",
"XX................XXXXXXXXXXXX....         XX...XXX.......XXXXXX",
".XXX............XXXXXXXXXXXXXXXXX......      XXXXX...XXX....XXXX"
};
