/* XPM */
static char *_3571d511dc5450a94058a34a583ce347Rddvos75JCpXxbK[] = {
/* columns rows colors chars-per-pixel */
"64 64 22 1 ",
"  c #241808",
". c #2B1E0D",
"X c #332411",
"o c #3F2A15",
"O c #421D0A",
"+ c #492510",
"@ c #6A4030",
"# c #774235",
"$ c #686868",
"% c #747474",
"& c gray50",
"* c #815339",
"= c #8F5E3E",
"- c #90593F",
"; c #94603E",
": c #9B6349",
"> c #AA7259",
", c #B3795E",
"< c #B7836B",
"1 c #523D89",
"2 c gray56",
"3 c white",
/* pixels */
"22&&22%%%%&&&&%%%%%&&&&&&&&&&%%%%%%%%%&&&22&%%%%%%%%%%&&&&&&&&%%",
"%&&2222%%%%&&&&&%%%%%%&&&&&%%%%&&&%%%%&&&&%%%%&&%%%%%&&&&&&&&&&%",
"%%&&&22222&&&&2&&%%%&&&&&&&&%%%%%&&&%%%%&&&&&&&%%%%&&&&&&&&&&&&&",
"%%%&2222&&&&22222&&&&&&%%%%%%%&&&&&&&&&&&&&&&%%%%%%%%%%&&%%%&&&&",
"&%%%&&&2222&&22222&&&%%%%%%%&&&&&&&&&&&&&&&&%%%&&&&%%%&&%%&&&&&%",
"%%&&&&&&22222222&&&&%%%%&&&&&&&&&&&&&&&&&&&&&&&&%%&&&%%%%%%&&%%%",
"&&&%%&%%%%&222&&%%%&&%%%%%&&&&&&&&&&%%$$%&&&&&&%%&&%%%%&&&&%%%&&",
"&&&&%%%%$$$&&&&%%%%%%%%&&&&%&&&&&&&%%%%$$$%%%%%%%%%%%%&&&&&&&&&&",
"&&%&&&%%%$$$$%%%$$$$%%%%%%%%%&&&&%$$$$$$$$$%$$$%%&&&%%%%&&&%%%&&",
"&%%%%%%%%%$$$$%$$$$%%%%%%%%%%%&%%%%%$$$%%%$$$%%%%%%&&&&&&&&&%%%&",
"%%&&%&&%%%%$$$$$$%%%%%%%%%%%%%%%%&&%%$$$$%%%&&%%%&&&&&&&&&%&&%%%",
"%%%&&&%%%%%%%$$%%%%%%%%%&&&&%%%&&&%%%%%$$$%%%&&%%%&&&&&&&&&%%%&&",
"%%%%&&&%%&&&22&&%%22&&222&%%%%%%&&&22222&%%%&&&&&&&&&&&&&&&&&&&&",
"%%%%%&222&&&&222&&&22222&&&&%%&&&222222222&&&&&&&&&&&&&&&&&&&&%%",
"%%%%%222&&2222&&&&2222&&&&&&&&&222&&&2222222&&&&&&222&&&&%&&%%%%",
"&&&%%%&222222&%%%&&&&22&%%&&&&&&222&&&&2222222&&222&&&&%%%%%%%%&",
"&&&&%%222222%%%%XX...XXooXXXXoooXXooooooX..X...X22222%%%%%%%%%%%",
"%&&&&22222&&&%%%.XX..XXXooXXoooXXooooXXXXX.XX..X&222$$$%&&&%%%&&",
"%%%&&&2&&222&&&&XX.X..XXXXoooXXooooXXXXooX.XX.XX222%%$$$$&&&&%%&",
"%%&&&&&%%&&&&&&%.XXXX...XXXoXXoooXXoXXooXXXXX.XX2$$%$$&&&&&%%%%%",
"&222&&&&%%%&&&&& ..X...X..oXXXXXooXXXoX.XoXX.X.X%%$$$$$&&&%%%%&&",
"&&2222&%%%%%&&&&   .....X..XXXoXXXX..XXX.oXXXX.X%%%%$$$$%&&&%%%%",
"&&&2222&&&%%%&&&.  . .XXXXXXXooXXo..XXXXXXoXXX..%%%%%%%%%%%&&%%&",
"&&&&&222&%%22&&&..  ...X..XXXXoooXXXXXooX.X.XX..&%%%%%%%%%&&&&&&",
"%%%%&&&&&&&&222&  ... :>>>,,,,,,,,,,>>>>>:...XX.&&&&&%%&&&222&&%",
"%&&&&&&&&&&%%222.  .:>,,,,,,,,<<,,,,,>>>>>>:..XX&&&&&&&&222222%%",
"%%&&&&%%&&&&&%22X..:>,,,,,,,,<<,,,,,,,>>>>>>: .X&&&&&&222222&&&%",
"%&&&%%%&&%$$&&%%. :>,,,,,,<<<,,,,,,,,,>>>>>>>: X%%%&&&&2222&&&%%",
"%%%%%%%%$$$%%%%% :>,,,,,,,,<,,,,,,,,,,>>>>>>>>:.%%&&&&&&&&&&&%%%",
"&%%%%&&&%$$$$$%%.>>,,,,,,,,,,,,,,,,,,,>>>>>>>>> &%%%&&&&&&&&&&&&",
"%%2%%%%&&&%$$%%%:>>,,,,,,,,,,,,,,,,,,>>>>>>>>>>:&&&&&&&&&&%%&&%%",
"%2222%&&&$$$$$$$:>>>,,,,,,,,,,,,,,,,>>>>>>>>>>>:&&&&&&&&%%%%%%%%",
"222222&&&&&&%$$2>>>>33331111,,,,,,>>11113333>>>>&&&&&&%%&&&&&%%%",
"2222222&&&&&&&&%>>>>33331111,,,,>>>>11113333>>>>&&&&&&&&&22&%%%%",
"&2&&22&&&22&&&&&>>>>33331111>>>>>>>:11113333>>>>%%%%&&22&&22&%&&",
"%&&22222&&22&&&&>>>>33331111>>>>>>::11113333>>>>%%&2222&&22&&&&&",
"%%%&&&22222222&&>>>>,,,,,,,>@@@@@@@@>>>>>>>>>>>>2&&&222222&&&&%&",
"%%%%&&&&2&&&222&>>>>>>>>>>>>@@@@@@@@>>>>>>>>>>>>&&2222&&&22&&$$%",
"%$$&&&&&&&&222&%>>>>>>>>>>>>@@@@@@@@>>>>>>>>>>>>2222222%&&&%%%$$",
"$$%%&&&&&&222&&&:>>>>>>>>>>>@@@@@@@@>>>>>>>>>>>:22222&%%%%&&%%%$",
"$$%$$$&&&&&2&&&&::>>>>>>>O++########+++>>>>>>>::22&&&&&&%%%%%%&&",
"%$$$%%&&%%%&&&&&::::>>>>++OO########+O++>>>>::::&&&%%%%%%%&&&&&&",
"&&%$$%%%%%&&&&&&--=:=::-+OO+########O++O:=::=:=*&%%%%%%%%%%%&&&&",
"&&&&%%%&&&&&&&&%-===::--O+++########+OO+=:::*=*=%%%%&&%%%%%&&&&&",
"&&&&&&%%&&&&%%%%*--=-=--+++OO+O++O+O++OO==:==**-222&&%%%&&&2222&",
"&&&&&&&&&&&%%&&&-*--=--*++O+OO++++OOO++O=*==**==22&&&2&&&&2222&%",
"%&&&&&&&&&&&&&%%-=;=*=**O++++OOO+O++OOOO*=*=;=**22222222&&&2&22&",
"&&%%%&&%%%&&&&22;;=;=***+O++OOO+O++OOOOO****=;==%%2222&222&&&222",
"%%%&&&%%&&&&&&&&2222&&&22&&&&&%%%%%%%&&&%%%%%%$$$%%%2%$$%%&%%%%%",
"%%%%%%%%%%&&&&&&&22222&&&%%&&&&&&%%&&&&&&%&&&$$%%%%%%$$%%&%%&&&%",
"%%2&&%%%%%%%%&22&&222&%%%%%%%&&&&&&&&&&&%%%&&&&%%%%&&%%$%&&%%%&&",
"%222222%%%%&&&&2222&&%%%%%&&&&%%%&&&&&&&&&&&%%%%%&&&%%%%%%%%&&&&",
"&&&222222%%%%%&&%%&&%%&&%%%&%%%%&&%&&&&&&&&&&%%%22&&&%%%22&222&%",
"2222&&&2222%%%%%%%%&&&&&&&&%%%%%%%%%%&&&&&&&&&&%%2222%&22&&&2222",
"222222&&&&%%%%%%%%%%&&&&&&&&%&&&&%%%&&%&&&&&&&&&222&&&22222222&&",
"22&&&&&&%%%%%%%%%%%%%&&&&&&&&&%%%%%%%%%%%%&&&&&&&&22222222222&&&",
"&222&&&%%%%%%%%%&&%%%%%&&&&&&%%&%%%%&&&&&&&&&&&22222222222&&2222",
"&&&&&%%%%%%%%&&&&%%&&&&&&&&&&&&&&&%%%%%&&&&&&&22&&&&2222&&&222&&",
"&&&%%%%%%%%%%%%&&&&&&&&&&&&&&&&&&&&&&222&&&&%&&&&2222%%%%%&&&&&&",
"&%%%%%%&&&&%%&&&&%%%&&&&%%%%&&&&&&&222&&&&&%%%%&&&&&%%%%%&&%&&&&",
"%%%%%%%%%&&&%%&&%%%&&&%%%%%%%%&&2&&&2222%%&&&%%%&&&&&&%%%%%%%%&&",
"%%%%%%&%%%%&&&&&&&&&&&&&&%%%&&&&&222&22&&%%%%%&&&&&&&&&&&&&%%&&%",
"%%&&&&&&&&&&&&&&&&%%%%%%%%%%%%&&&&222222222%%&&&%%%&&&&&&&%%%%%%",
"&%%%&&&&&&&&&&&&%%%%%%%%%%%%%%%%%&&&&&&222222%%%%%&&&%%%&&&&%%%%"
};
