/* XPM */
static char *_32439be35a44eecc97f5c0e8a79d9e3y1ugMMJORAI6bpnN[] = {
/* columns rows colors chars-per-pixel */
"64 64 111 2 ",
"   c #C93607",
".  c #CA3D07",
"X  c #CB3E08",
"o  c #D13E05",
"O  c #CC4107",
"+  c #CD4309",
"@  c #CF490A",
"#  c #D14507",
"$  c #D34C06",
"%  c #D14509",
"&  c #D14C0B",
"*  c #D84F0D",
"=  c #D85307",
"-  c #D3530D",
";  c #D8550C",
":  c #D55A0E",
">  c #D95B0D",
",  c #D45610",
"<  c #D55B11",
"1  c #D95D11",
"2  c #D6650E",
"3  c #D9630E",
"4  c #D9680F",
"5  c #D76214",
"6  c #D96414",
"7  c #D76A15",
"8  c #DA6A15",
"9  c #D76B19",
"0  c #DA6D19",
"q  c #DC7014",
"w  c #DC7315",
"e  c #DE7B13",
"r  c #DA751B",
"t  c #DD751B",
"y  c #DB711C",
"u  c #DC731E",
"i  c #DB741C",
"p  c #DC751E",
"a  c #DD771E",
"s  c #DD7B1D",
"d  c #DE781E",
"f  c #DF7E1F",
"g  c #DA6A21",
"h  c #DB7520",
"j  c #DD7720",
"k  c #DD7920",
"l  c #DD7D21",
"z  c #DF7E22",
"x  c #DF7D25",
"c  c #DE7C26",
"v  c #E07E25",
"b  c #E1831C",
"n  c #DE8324",
"m  c #DF8127",
"M  c #DF8C25",
"N  c #DF8129",
"B  c #DF8629",
"V  c #DE852A",
"C  c #DF8B2A",
"Z  c #DF8C2D",
"A  c #DF922C",
"S  c #E18321",
"D  c #E28B26",
"F  c #E08028",
"G  c #E1862A",
"H  c #E2872F",
"J  c #E28828",
"K  c #E28C2C",
"L  c #E18D2E",
"P  c #E39022",
"I  c #E3922C",
"U  c #E49B2F",
"Y  c #E18A30",
"T  c #E48B30",
"R  c #E28E32",
"E  c #E48E32",
"W  c #E49130",
"Q  c #E59133",
"!  c #E69132",
"~  c #E79732",
"^  c #E59335",
"/  c #E69634",
"(  c #E89735",
")  c #E39834",
"_  c #E49B34",
"`  c #E49A35",
"'  c #E89835",
"]  c #E69639",
"[  c #E69B3B",
"{  c #E79F3A",
"}  c #E79C3E",
"|  c #E89A3A",
" . c #E89D39",
".. c #E99E3B",
"X. c #E6A13B",
"o. c #E9A43F",
"O. c #E6AD3E",
"+. c #E8AA3B",
"@. c #E6B13F",
"#. c #E79F40",
"$. c #E6A140",
"%. c #E9A744",
"&. c #E9AA44",
"*. c #EAAB49",
"=. c #E7B441",
"-. c #ECB145",
";. c #ECB34B",
":. c #EEB84F",
">. c #EEB652",
",. c #EEBB55",
"<. c #F0B951",
/* pixels */
"+ + X X . . X X . X X X X X O + + & : 8 p z x 6 6 - & - , < < - & & + + + + + + + + & ; ; 8 G } } { { { { / z G 0 d 5 5 < < & + ",
"+ + X X X . X X X O X X X X O + % & & 7 0 0 0 7 6 & & - , , , - - O O O + + + + @ & & ; & 8 t t ` { { {  .[ ^ R F j j 8 < - < % ",
"+ + . X + + X + + + + X X + + + + & < 7 7 0 0 1 - - & & , - - - + O O + O O O + + @ @ & & ; 6 6 ` {  . . .[ [ E R j k k 8 5 - % ",
"X X X + + + + * * & % X X + + & & - 1 5 6 < < ; ; ; - & @ & & + + X . . O . O O @ + @ & & & > Z ` `  . .' / [ E K H F u u : & + ",
". . . X & 1 & 0 0 8 % - + + + & & : 1 5 1 : < : : ; & & & @ @ + + O X . . . . . O + + + & & > f B }  . .| ! J K K Y Y N i : : + ",
"X . . % 1 p p 0 G G 8 j 8 # & & - ; : 1 1 1 1 : : : 5 5 & @ + + O X X . . . . X . O . + % & > ; ) {  .! ! S q p Y N H H i i : + ",
". . . X 1 m p G ! ! H 8 k 5 & - - : < < 1 1 1 0 5 x d d ; ; + + X X X . . . . . . . + . + & - - B B R K S ; ; 3 p z H x 5 $ + . ",
". . X & & m ! ! ~ ( T T x : : - - , < < < 1 5 8 j x R K 8 ; % O O X X . . . . . . . . . X % + & 3 r R u - 8 ; % ; z 4 0 : $ O . ",
". X X X & m ! ~ ' / T v 7 : & - - - < < < 6 8 8 H ] K ! S 8 - # + + + . . X . . . . . . X + + & 5 7 1 1 & + X O % % 0 0 : & & + ",
"O O X O & 5 J I ' ^ H H 7 5 & & & @ - < 1 1 y F R ! ` ! ! S 8 # ; % % + X . . . . . . . . + @ & - - 7 & % % X X X + + ; & & + + ",
"+ + + @ - 6 6 p K K K v > 5 - % @ @ - < 1 5 5 x x ! [ | [ ! D D 4 - & & O + X O . . . . . + @ @ @ & & & + O O O . + & & & - & + ",
"& & + % - 6 & : 6 k k 7 : & & & & - - < < 1 0 8 K K / | [ ! D e 4 q 6 ; - + % + + + . . X + + @ @ @ & + + + O O O + & + 1 - 1 & ",
"6 > & % % & + + & : i 6 6 - - & - - - - < 1 6 t K ! ] [ } ] ^ ^ m q K m - 0 - & + + + + + + @ @ @ @ @ + + O O O + & + 8 1 1 y 8 ",
"6 > 6 ; % X X X O : : : @ @ - - - - ; , , < 6 8 d ! G R R ^ R ] /  .! X.! z z & - + + + + + @ @ @ @ + + + + + O & & 8 z 8 N i 8 ",
"F p z z : X & X X O . X @ @ - - - ; ; ; - - : < d r r R F J R R %.%.-.X.! ~ z 8 : - & + @ + + @ + + + + + + + & & 1 ; z R E G ! ",
"E E K K 8 & - & X X X . X @ - - - ; ; - ; - & & - r z 0 t t D } } &.:.:.-.&.I 8 6 : - & + + + + + + + + + + + + - - d K ! ! ^ ^ ",
" .| K K z y 6 ; - # . X + + & - - - - - & & + + + & & & 0 q S ` } :.:.<.<.-.&.f y q - & - @ + + + + + + + + + & & > t K J / / ` ",
"' / / m m 8 8 7 ; 3 - - % + & - - - - - & + + X + + & @ 1 & S I &.;.:.:.;.*.{ I p 5 ; - & & + + + O O O O + + + & & 4 m ! ! / | ",
"( / E F F 6 8 7 0 n m 3 % % & - - - - & + O X . X . + O + & q q ` ` ;.:.-.-.[ { K 5 ; ; & @ @ @ + + O . O O + + + & ; ; ! / / / ",
"^ / ! F 0 < < 5 G ~ m U - - & & - @ - @ + + . . . . X O + + & 5 b ` ` ;.$.} K K 7 < - - & @ @ + + O . O O O O + X X ; % f K ! / ",
"E R v y 5 5 : 8 D o.&.U b b & & & & & + + X O . . . . O O + + * * S X.G G $.R x 1 7 * & & & @ + O X . . . O O + + X X X 6 x K K ",
"G G p p < & & * 6 K :.;.b 8 * & & @ @ + + X . . . . . X O + + * & ; F F J J 6 : 1 ; - - - & - + O O X . . . O . X X X % & 8 8 ! ",
"G y y p : & ; q K &.,.;.&.S * $ & @ + + O . . . X . . O O O + & - - 7 5 5 1 6 , ; < < ; ; - & & O O X X X X . . X X X X $ > 8 G ",
"5 5 6 : & & ; b +.,.,.>.&.;.S ; & @ + + + . . . X X . X O O @ + - < 1 < < < ; ; , 1 , < ; - & + + O O O X X . X X X O + + > : 5 ",
"5 - 5 - % * q b -.:.>.>.>.I I t & & + + O . . O O X O + O + + - ; ; < < < < , , < 7 1 5 1 - & % + + + + + X X X X X O + + - ; 5 ",
"& @ + @ % * 1 ` -.-.>.>.*.{ { > > - @ + + O O O O O X O + + + - : 1 1 < ; ; < 1 7 7 8 7 1 : - & & % + + + + X + X X O & @ ; ; ; ",
"& & O + & 1 1 +.;.;.;.>.&.&.d > > & @ + O O O O + + O + + + + - : 5 1 1 < - - 1 7 7 0 0 1 : : - & & + + + @ + + O O + + - - : : ",
"& O + + % > b ` +.&.;.*.&.` 8 & + @ O + + + + + + + + + + & & : 1 5 5 1 1 - - < 5 5 7 8 1 - - - - ; - + & @ @ + O O + & @ : : : ",
"5 O . . . X q _ &.{ { *.P e 8 % % . O X @ & & + - + @ @ & - ; : 5 5 5 1 1 , * < 1 7 8 1 1 : - - 1 1 - < < - + O X X X & ; q i i ",
"- - .   . + + ; D J S #.q e & & .   . . @ - & - - - @ @ & & ; ; 5 5 5 5 ; - - ; ; < < : - & - < 5 0 0 7 ; & & + . . . # $ m x g ",
"* . .     . ; ; 8 1 1 > q : & X . .   . & - - - - - - - & & - 1 < 1 5 1 : ; ; * , 1 ; ; - & & ; 5 0 0 7 ; ; % o o     = = J B B ",
"g + +   . . . # 1 & & > & & O O . . . + @ - & - - - - & & & - ; < 1 1 1 : 5 1 < < - - - - - - - : 5 7 0 6 8 8 o - X ; 0 = K N g ",
"7 & O O + + + + + & * @ + + + + O X X + + @ @ & & & & & & & & - - < 1 8 5 h i 7 1 - ; - - - - - - - 7 7 q f M M - C I ; I Z N 7 ",
"& & @ + + + + + + + O + + + @ @ @ + + + + @ @ + @ & & & & - - - - - 1 5 z h B i 7 < ; ; ; < , - - % & 7 8 D J I =.@.C ` K k Z h ",
"& & @ + + + + + O O O + + @ @ @ @ @ + + + + + + @ & & - - - - < < < 5 y z C C i 7 < ; : : , , , - & + & ; f ` O.O.@.O.) ) K 1 ; ",
"+ & + + + + + + + O O + @ + @ @ @ @ @ + + + + + + + & - - , 5 5 1 1 1 i z z B B 8 1 : : < , , - - + + + : # f 0 I I O.D f > - & ",
"+ O X + X X X + O + + % % + + @ @ @ @ + + + + + @ + & - - 7 0 0 0 0 0 6 p z B z y y 6 < , < , - @ @ + @ & & - C C ; I D f - & & ",
"O X     . X + + & & + % * % + + + @ @ @ + @ @ @ @ @ & & - y i i i i 0 p k z m B z 5 < ; - - & - @ @ @ @ + + + + # $ 3 & & & & @ ",
"X X . . . X X % 8 8 q q 8 > % & + + + + + @ @ @ @ @ & ; 9 6 p z z i k k k z k i i 5 ; ; - - & + + @ + + + + + # # $ $ + @ @ + + ",
"X X . . . & 2 2 8 q m q m m & % % X X + + + @ @ @ @ & ; 9 p z z z z z z z k i 0 0 0 - & & + + + + + + + + + + + + + + + + @ + O ",
". X X + O : r r m C D B D K d 7 8 - + + + + + @ @ @ @ @ 6 i z z m m z m z k i 5 0 : - & & & + + + + + + + + + + + + + + + + + + ",
"X X + X - 6 r k C I D I I K C C 8 # % % + + @ + + + & & : 0 i z m m m k i i 0 ; : & @ + + + X X + X + + @ @ @ @ + + + + + + X . ",
"X X @ & - - k B D I I I I I I B B 6 6 - + + + + + + + @ & 0 0 i z z k k 8 0 : & & % % + + X X X . X + + + @ @ @ + + + X X X . . ",
". X + - - 5 5 k m I I I I I D K B 0 0 : % + + + + + @ @ & ; - 6 p 0 k 9 5 & % & % & + X X X X . X X + + + @ @ @ @ + + + O . . . ",
"O @ @ - - < 0 0 z D D D I I K m B x 5 - + + + + + + + @ & & & & - - 0 5 - % & % % + + X X X . . . . + O + & & @ & & + + . . . . ",
"X @ @ @ - - 6 6 0 J J m B m z z k 0 5 - - + + + + + @ @ @ + + + + + ; & + + % + + + X X X . X . . . + + + & & & & & + X X . . + ",
"+ @ @ & & - ; 1 0 p m B m p i z 0 0 0 1 & + + + + + @ @ @ + + + + + + + + + + + X X X X X X X . . + + & - & ; ; & - # X . O X + ",
"+ @ @ & & & & - 0 i d i y p p 8 5 0 1 1 + & + + + @ + @ & & & & & & @ @ + + + O X X X X X X X X X + + & 1 1 0 y : : # + + + + X ",
"@ @ & & & & - , 8 8 i i 0 5 8 1 < ; - & + + + + + + & & - & - - - - & @ + + O O X X X X X X X X X O O , , B B m 8 - + + + + + + ",
"@ & & & & - - , 6 y i y 9 < 1 < & & & @ O + + + + + & & , - , 1 1 - - - + + + X . X X X X X X X X X # 1 m m ` ` 8 - % + + + @ @ ",
"& - - - & - - 1 1 5 5 5 5 < - - & & & @ + O + + + + - < < , < 5 5 5 - - + + X X . . X X X O X X O X X 1 m n ) A Z ; % + @ @ @ & ",
"- - - - - - , : : 1 ; - & & @ @ + & + + + + + + + + & < 1 5 1 5 5 1 @ & + + X X X . X X X X + O + + O 5 m p C C 0 & % + @ @ - & ",
"- - - - - - - - : & & & & @ @ @ @ + + + + X + + + - - 5 5 5 7 5 5 - & @ X + X X X X . X X + + + + + & 1 8 8 C 5 k & + @ @ & - - ",
"- - - : - - - @ - + + & + + @ @ @ + + + + + + + + - - 5 7 7 7 6 : + X X X X X X X X X X O O + + + + & - - 8 : 8 & & + + @ & & - ",
"- , , - : - - + O X X + + + + + + + + + + + + + & - - 5 8 0 6 : & X . . . X X X X X X X + + + + + + & - : : & ; + + + + + & & - ",
"& - - , - @ - + + . . . O + + + + + + + + + + + @ & , 5 5 0 7 : : X . . X X O + X X X X . O + + + + @ & & & & % + + O + + + & & ",
"- & - - - + + O . . . . . + X + + + O + + @ @ @ @ & & 1 9 0 7 1 & X . . O + O + + X X X . O X + + + @ @ & @ + @ + + O + O + + @ ",
"@ @ & + + + X O . . . . X X X + X + O O + @ & & & & - 1 9 0 9 1 & + O O O + + + + X X . . X X O + + & & & & @ + + O O O + O + @ ",
"+ + + + + X . . . . . . X X X X X O + @ @ - , : & & & & 6 7 0 1 - + O + O + + + + X X X X X O + & @ & & & & @ @ + + + + O + + + ",
"+ + + + + X X X X . . . . X X X X O + & < 6 6 - - - & - : 6 6 1 1 & & @ + + + + + X X + X & & - & - - - - & @ & + + + + + + + + ",
"+ + + + + + X X X X X X X X X X X + + + - 9 0 < ; & & - - 1 5 5 - - & + @ @ @ + + + + + & 5 9 8 5 - , - - & & & & @ + + + + + + ",
"+ + + + + + X X X X X X X X X X X + & < - 9 y 0 6 & & & & - 5 1 - - - & @ @ @ + + + + & 5 5 m m 1 < y 1 - - - - & @ & @ + + + + ",
"+ + + + + X X X X X X X X X O X X + & 1 1 0 0 6 , & & & & - , 1 - - - & & @ + + + + + - 6 6 B B B y y y 7 7 : ; ; - & & @ + + + ",
"+ + + + + X X X X X X X X O O + + + + 1 7 7 0 5 - & @ & @ - - , & & @ & @ @ @ + + + + - 6 6 m m D m m y z z r 5 ; ; - - @ @ @ + "
};
